# xmcd
#
# Track frame offsets:
#	150
#	31212
#	55231
#	79234
#	96281
#	117397
#	139000
#	176856
#	193164
#	214676
#	229667
#	246439
#	270317
#	293903
#
# Disc length: 4175 seconds
#
# Revision: 0
# Processed by: cddbd v1.5.2PL0 Copyright (c) Steve Scherf et al.
# Submitted via: audiograbber 1.83.01
#
DISCID=cf104d0e
DTITLE=Trooper - Trooper
DYEAR=2002
DGENRE=Heavy Metal
TTITLE0=Strigat
TTITLE1=Inca o lupta
TTITLE2=Nu mai pot (sa mai stau in loc)
TTITLE3=Cum vreau eu
TTITLE4=Ultima noapte a condamnatului la moarte
TTITLE5=Tari ca muntii
TTITLE6=Totul e fals
TTITLE7=Nori de hartie
TTITLE8=Pentru tot ce-a fost
TTITLE9=Dorinta
TTITLE10=Nu mai sunt ingeri
TTITLE11=Posedat
TTITLE12=Nu ma uita
TTITLE13=Dorinta (acustic)
EXTD=
EXTT0=
EXTT1=
EXTT2=
EXTT3=
EXTT4=
EXTT5=
EXTT6=
EXTT7=
EXTT8=
EXTT9=
EXTT10=
EXTT11=
EXTT12=
EXTT13=
PLAYORDER=
